# xmcd CD database file
#
# Track frame offsets:
#	150
#	12170
#	24465
#	38052
#	52072
#	66510
#	79952
#	99095
#	121225
#	136275
#	151207
#	164225
#	179205
#	191105
#	205522
#
# Disc length: 2919 seconds
#
# Revision: 0
# Processed by: cddbd v1.5.1PL2 Copyright (c) Steve Scherf et al.
# Submitted via: CDex 1.51
#
DISCID=d10b650f
DTITLE=Louis Armstrong - Jazz Tribune Vol.2
DYEAR=1992
DGENRE=Jazz
TTITLE0=It Takes Time
TTITLE1=You Don't Learn That In School
TTITLE2=Jack-Armstrong Blues
TTITLE3=Rockin' Chair
TTITLE4=Some Day (You'll Be Sorry)
TTITLE5=Fifty-Fifty Blues
TTITLE6=A Song Was Born (orig.)
TTITLE7=A Song Was Born (alt.)
TTITLE8=A Song Was Born (All-Stars)
TTITLE9=Please, Stop Playing Those Blues
TTITLE10=Before Long
TTITLE11=Lovely Weather We're Having
TTITLE12=Rain, Rain
TTITLE13=I Never Saw A Better Day
TTITLE14=Hobo, You Can't Ride This Train
EXTD=YEAR: 1992
EXTT0=
EXTT1=
EXTT2=
EXTT3=
EXTT4=
EXTT5=
EXTT6=
EXTT7=
EXTT8=
EXTT9=
EXTT10=
EXTT11=
EXTT12=
EXTT13=
EXTT14=
PLAYORDER=
